<mxfile host="app.diagrams.net" modified="2023-09-30T09:46:43.906Z" agent="Mozilla/5.0 (Macintosh; Intel Mac OS X 10_15_7) AppleWebKit/537.36 (KHTML, like Gecko) Chrome/116.0.0.0 Safari/537.36" etag="d6echEIgFUBWqn_AuXDY" version="22.0.0" type="github">
  <diagram name="Page-1" id="8ce9d11a-91a2-4d17-14d8-a56ed91bf033">
    <mxGraphModel dx="1299" dy="1138" grid="1" gridSize="10" guides="1" tooltips="1" connect="1" arrows="1" fold="1" page="1" pageScale="1" pageWidth="1100" pageHeight="850" background="none" math="0" shadow="0">
      <root>
        <mxCell id="0" />
        <mxCell id="1" parent="0" />
        <mxCell id="iLBVvjwJMC0lBQrL37YK-2" value="&lt;h5 style=&quot;box-sizing: border-box; break-after: avoid-page; break-inside: avoid; orphans: 4; font-size: 1em; margin-top: 1rem; margin-bottom: 1rem; position: relative; line-height: 1.4; cursor: text; caret-color: rgb(51, 51, 51); color: rgb(51, 51, 51); font-family: &amp;quot;Open Sans&amp;quot;, &amp;quot;Clear Sans&amp;quot;, &amp;quot;Helvetica Neue&amp;quot;, Helvetica, Arial, &amp;quot;Segoe UI Emoji&amp;quot;, sans-serif; text-align: start; background-color: rgb(255, 255, 255);&quot; class=&quot;md-end-block md-heading md-focus&quot;&gt;GraphQLSchema&lt;/h5&gt;" style="ellipse;whiteSpace=wrap;html=1;aspect=fixed;" vertex="1" parent="1">
          <mxGeometry x="460" y="180" width="140" height="140" as="geometry" />
        </mxCell>
        <mxCell id="iLBVvjwJMC0lBQrL37YK-6" value="" style="edgeStyle=orthogonalEdgeStyle;rounded=0;orthogonalLoop=1;jettySize=auto;html=1;" edge="1" parent="1" source="iLBVvjwJMC0lBQrL37YK-3" target="iLBVvjwJMC0lBQrL37YK-5">
          <mxGeometry relative="1" as="geometry" />
        </mxCell>
        <mxCell id="iLBVvjwJMC0lBQrL37YK-3" value="&lt;div style=&quot;background-color: rgb(255, 255, 255); font-family: Menlo, Monaco, &amp;quot;Courier New&amp;quot;, monospace; line-height: 18px;&quot;&gt;GraphQLObjectType-1&lt;/div&gt;" style="rounded=0;whiteSpace=wrap;html=1;" vertex="1" parent="1">
          <mxGeometry x="440" y="400" width="270" height="70" as="geometry" />
        </mxCell>
        <mxCell id="iLBVvjwJMC0lBQrL37YK-4" value="&lt;div style=&quot;background-color: rgb(255, 255, 255); font-family: Menlo, Monaco, &amp;quot;Courier New&amp;quot;, monospace; line-height: 18px;&quot;&gt;&lt;div&gt;&amp;nbsp;GraphQLObjectType-1{&lt;/div&gt;&lt;div&gt;  name&lt;span style=&quot;color: #001080;&quot;&gt;:&lt;/span&gt; &lt;span style=&quot;color: #a31515;&quot;&gt;&#39;Query&#39;&lt;/span&gt;,&lt;/div&gt;&lt;div&gt;  &lt;span style=&quot;color: #001080;&quot;&gt;description&lt;/span&gt;&lt;span style=&quot;color: #001080;&quot;&gt;:&lt;/span&gt; &lt;span style=&quot;color: #a31515;&quot;&gt;&#39;Root Query&#39;&lt;/span&gt;,&lt;/div&gt;&lt;div&gt;  &lt;span style=&quot;color: #795e26;&quot;&gt;fields&lt;/span&gt;&lt;span style=&quot;color: #001080;&quot;&gt;:&lt;/span&gt; () &lt;span style=&quot;color: #0000ff;&quot;&gt;=&amp;gt;&lt;/span&gt; ({&lt;/div&gt;&lt;div&gt;    &lt;span style=&quot;color: #001080;&quot;&gt;book&lt;/span&gt;&lt;span style=&quot;color: #001080;&quot;&gt;:&lt;/span&gt; {&lt;/div&gt;&lt;div&gt;      &lt;span style=&quot;color: #001080;&quot;&gt;type&lt;/span&gt;&lt;span style=&quot;color: #001080;&quot;&gt;:&lt;/span&gt; &lt;span style=&quot;color: #0070c1;&quot;&gt;BookType&lt;/span&gt;,  &lt;span style=&quot;color: #008000;&quot;&gt;// 输出的对象结构是在 BookType 中声明了的！&lt;/span&gt;&lt;/div&gt;&lt;div&gt;      &lt;span style=&quot;color: #001080;&quot;&gt;description&lt;/span&gt;&lt;span style=&quot;color: #001080;&quot;&gt;:&lt;/span&gt; &lt;span style=&quot;color: #a31515;&quot;&gt;&#39;A Single Book&#39;&lt;/span&gt;,&lt;/div&gt;&lt;div&gt;      &lt;span style=&quot;color: #001080;&quot;&gt;args&lt;/span&gt;&lt;span style=&quot;color: #001080;&quot;&gt;:&lt;/span&gt; {&lt;/div&gt;&lt;div&gt;        &lt;span style=&quot;color: #001080;&quot;&gt;id&lt;/span&gt;&lt;span style=&quot;color: #001080;&quot;&gt;:&lt;/span&gt; { &lt;span style=&quot;color: #001080;&quot;&gt;type&lt;/span&gt;&lt;span style=&quot;color: #001080;&quot;&gt;:&lt;/span&gt; &lt;span style=&quot;color: #001080;&quot;&gt;GraphQLInt&lt;/span&gt; }&lt;/div&gt;&lt;div&gt;      },&lt;/div&gt;&lt;div&gt;      &lt;span style=&quot;color: #795e26;&quot;&gt;resolve&lt;/span&gt;&lt;span style=&quot;color: #001080;&quot;&gt;:&lt;/span&gt; (&lt;span style=&quot;color: #001080;&quot;&gt;parent&lt;/span&gt;, &lt;span style=&quot;color: #001080;&quot;&gt;args&lt;/span&gt;) &lt;span style=&quot;color: #0000ff;&quot;&gt;=&amp;gt;&lt;/span&gt; &lt;span style=&quot;color: #0070c1;&quot;&gt;books&lt;/span&gt;.&lt;span style=&quot;color: #795e26;&quot;&gt;find&lt;/span&gt;(&lt;span style=&quot;color: #001080;&quot;&gt;book&lt;/span&gt; &lt;span style=&quot;color: #0000ff;&quot;&gt;=&amp;gt;&lt;/span&gt; &lt;span style=&quot;color: #001080;&quot;&gt;book&lt;/span&gt;.&lt;span style=&quot;color: #001080;&quot;&gt;id&lt;/span&gt; === &lt;span style=&quot;color: #001080;&quot;&gt;args&lt;/span&gt;.&lt;span style=&quot;color: #001080;&quot;&gt;id&lt;/span&gt;)&lt;/div&gt;&lt;div&gt;    },&lt;/div&gt;&lt;div&gt;    &lt;span style=&quot;color: #001080;&quot;&gt;books&lt;/span&gt;&lt;span style=&quot;color: #001080;&quot;&gt;:&lt;/span&gt; {&lt;/div&gt;&lt;div&gt;      &lt;span style=&quot;color: #001080;&quot;&gt;type&lt;/span&gt;&lt;span style=&quot;color: #001080;&quot;&gt;:&lt;/span&gt; &lt;span style=&quot;color: #0000ff;&quot;&gt;new&lt;/span&gt; &lt;span style=&quot;color: #795e26;&quot;&gt;GraphQLList&lt;/span&gt;(&lt;span style=&quot;color: #0070c1;&quot;&gt;BookType&lt;/span&gt;),&lt;/div&gt;&lt;div&gt;      &lt;span style=&quot;color: #001080;&quot;&gt;description&lt;/span&gt;&lt;span style=&quot;color: #001080;&quot;&gt;:&lt;/span&gt; &lt;span style=&quot;color: #a31515;&quot;&gt;&#39;List of All Books&#39;&lt;/span&gt;,&lt;/div&gt;&lt;div&gt;      &lt;span style=&quot;color: #795e26;&quot;&gt;resolve&lt;/span&gt;&lt;span style=&quot;color: #001080;&quot;&gt;:&lt;/span&gt; () &lt;span style=&quot;color: #0000ff;&quot;&gt;=&amp;gt;&lt;/span&gt; &lt;span style=&quot;color: #0070c1;&quot;&gt;books&lt;/span&gt;&lt;/div&gt;&lt;div&gt;    },&lt;/div&gt;&lt;div&gt;    &lt;span style=&quot;color: #001080;&quot;&gt;authors&lt;/span&gt;&lt;span style=&quot;color: #001080;&quot;&gt;:&lt;/span&gt; {&lt;/div&gt;&lt;div&gt;      &lt;span style=&quot;color: #001080;&quot;&gt;type&lt;/span&gt;&lt;span style=&quot;color: #001080;&quot;&gt;:&lt;/span&gt; &lt;span style=&quot;color: #0000ff;&quot;&gt;new&lt;/span&gt; &lt;span style=&quot;color: #795e26;&quot;&gt;GraphQLList&lt;/span&gt;(&lt;span style=&quot;color: #0070c1;&quot;&gt;AuthorType&lt;/span&gt;),&lt;/div&gt;&lt;div&gt;      &lt;span style=&quot;color: #001080;&quot;&gt;description&lt;/span&gt;&lt;span style=&quot;color: #001080;&quot;&gt;:&lt;/span&gt; &lt;span style=&quot;color: #a31515;&quot;&gt;&#39;List of All Authors&#39;&lt;/span&gt;,&lt;/div&gt;&lt;div&gt;      &lt;span style=&quot;color: #795e26;&quot;&gt;resolve&lt;/span&gt;&lt;span style=&quot;color: #001080;&quot;&gt;:&lt;/span&gt; () &lt;span style=&quot;color: #0000ff;&quot;&gt;=&amp;gt;&lt;/span&gt; &lt;span style=&quot;color: #0070c1;&quot;&gt;authors&lt;/span&gt;&lt;/div&gt;&lt;div&gt;    },&lt;/div&gt;&lt;div&gt;    &lt;span style=&quot;color: #001080;&quot;&gt;author&lt;/span&gt;&lt;span style=&quot;color: #001080;&quot;&gt;:&lt;/span&gt; {&lt;/div&gt;&lt;div&gt;      &lt;span style=&quot;color: #001080;&quot;&gt;type&lt;/span&gt;&lt;span style=&quot;color: #001080;&quot;&gt;:&lt;/span&gt; &lt;span style=&quot;color: #0070c1;&quot;&gt;AuthorType&lt;/span&gt;,&lt;/div&gt;&lt;div&gt;      &lt;span style=&quot;color: #001080;&quot;&gt;description&lt;/span&gt;&lt;span style=&quot;color: #001080;&quot;&gt;:&lt;/span&gt; &lt;span style=&quot;color: #a31515;&quot;&gt;&#39;A Single Author&#39;&lt;/span&gt;,&lt;/div&gt;&lt;div&gt;      &lt;span style=&quot;color: #001080;&quot;&gt;args&lt;/span&gt;&lt;span style=&quot;color: #001080;&quot;&gt;:&lt;/span&gt; {&lt;/div&gt;&lt;div&gt;        &lt;span style=&quot;color: #001080;&quot;&gt;id&lt;/span&gt;&lt;span style=&quot;color: #001080;&quot;&gt;:&lt;/span&gt; { &lt;span style=&quot;color: #001080;&quot;&gt;type&lt;/span&gt;&lt;span style=&quot;color: #001080;&quot;&gt;:&lt;/span&gt; &lt;span style=&quot;color: #001080;&quot;&gt;GraphQLInt&lt;/span&gt; }&lt;/div&gt;&lt;div&gt;      },&lt;/div&gt;&lt;div&gt;      &lt;span style=&quot;color: #795e26;&quot;&gt;resolve&lt;/span&gt;&lt;span style=&quot;color: #001080;&quot;&gt;:&lt;/span&gt; (&lt;span style=&quot;color: #001080;&quot;&gt;parent&lt;/span&gt;, &lt;span style=&quot;color: #001080;&quot;&gt;args&lt;/span&gt;) &lt;span style=&quot;color: #0000ff;&quot;&gt;=&amp;gt;&lt;/span&gt; &lt;span style=&quot;color: #0070c1;&quot;&gt;authors&lt;/span&gt;.&lt;span style=&quot;color: #795e26;&quot;&gt;find&lt;/span&gt;(&lt;span style=&quot;color: #001080;&quot;&gt;author&lt;/span&gt; &lt;span style=&quot;color: #0000ff;&quot;&gt;=&amp;gt;&lt;/span&gt; &lt;span style=&quot;color: #001080;&quot;&gt;author&lt;/span&gt;.&lt;span style=&quot;color: #001080;&quot;&gt;id&lt;/span&gt; === &lt;span style=&quot;color: #001080;&quot;&gt;args&lt;/span&gt;.&lt;span style=&quot;color: #001080;&quot;&gt;id&lt;/span&gt;)&lt;/div&gt;&lt;div&gt;    }&lt;/div&gt;&lt;div&gt;  })&lt;/div&gt;&lt;div&gt;}&lt;/div&gt;&lt;/div&gt;" style="text;html=1;strokeColor=none;fillColor=none;align=center;verticalAlign=middle;whiteSpace=wrap;rounded=0;" vertex="1" parent="1">
          <mxGeometry x="760" y="90" width="780" height="620" as="geometry" />
        </mxCell>
        <mxCell id="iLBVvjwJMC0lBQrL37YK-5" value="AuthorType" style="whiteSpace=wrap;html=1;rounded=0;" vertex="1" parent="1">
          <mxGeometry x="515" y="760" width="120" height="60" as="geometry" />
        </mxCell>
        <mxCell id="iLBVvjwJMC0lBQrL37YK-9" value="&lt;div style=&quot;background-color: rgb(255, 255, 255); font-family: Menlo, Monaco, &amp;quot;Courier New&amp;quot;, monospace; line-height: 18px;&quot;&gt;&lt;div&gt;const &lt;span style=&quot;color: #0070c1;&quot;&gt;AuthorType&lt;/span&gt; = &lt;span style=&quot;color: #0000ff;&quot;&gt;new&lt;/span&gt; &lt;span style=&quot;color: #795e26;&quot;&gt;GraphQLObjectType&lt;/span&gt;({&lt;/div&gt;&lt;div&gt;  &lt;span style=&quot;color: #001080;&quot;&gt;name&lt;/span&gt;&lt;span style=&quot;color: #001080;&quot;&gt;:&lt;/span&gt; &lt;span style=&quot;color: #a31515;&quot;&gt;&#39;Author&#39;&lt;/span&gt;,&lt;/div&gt;&lt;div&gt;  &lt;span style=&quot;color: #001080;&quot;&gt;description&lt;/span&gt;&lt;span style=&quot;color: #001080;&quot;&gt;:&lt;/span&gt; &lt;span style=&quot;color: #a31515;&quot;&gt;&#39;This represents a author of a book&#39;&lt;/span&gt;,&lt;/div&gt;&lt;div&gt;  &lt;span style=&quot;color: #795e26;&quot;&gt;fields&lt;/span&gt;&lt;span style=&quot;color: #001080;&quot;&gt;:&lt;/span&gt; () &lt;span style=&quot;color: #0000ff;&quot;&gt;=&amp;gt;&lt;/span&gt; ({&lt;/div&gt;&lt;div&gt;    &lt;span style=&quot;color: #001080;&quot;&gt;id&lt;/span&gt;&lt;span style=&quot;color: #001080;&quot;&gt;:&lt;/span&gt; { &lt;span style=&quot;color: #001080;&quot;&gt;type&lt;/span&gt;&lt;span style=&quot;color: #001080;&quot;&gt;:&lt;/span&gt; &lt;span style=&quot;color: #795e26;&quot;&gt;GraphQLNonNull&lt;/span&gt;(&lt;span style=&quot;color: #001080;&quot;&gt;GraphQLInt&lt;/span&gt;) },&lt;/div&gt;&lt;div&gt;    &lt;span style=&quot;color: #001080;&quot;&gt;name&lt;/span&gt;&lt;span style=&quot;color: #001080;&quot;&gt;:&lt;/span&gt; { &lt;span style=&quot;color: #001080;&quot;&gt;type&lt;/span&gt;&lt;span style=&quot;color: #001080;&quot;&gt;:&lt;/span&gt; &lt;span style=&quot;color: #795e26;&quot;&gt;GraphQLNonNull&lt;/span&gt;(&lt;span style=&quot;color: #001080;&quot;&gt;GraphQLString&lt;/span&gt;) },&lt;/div&gt;&lt;div&gt;    &lt;span style=&quot;color: #001080;&quot;&gt;books&lt;/span&gt;&lt;span style=&quot;color: #001080;&quot;&gt;:&lt;/span&gt; {&lt;/div&gt;&lt;div&gt;      &lt;span style=&quot;color: #001080;&quot;&gt;type&lt;/span&gt;&lt;span style=&quot;color: #001080;&quot;&gt;:&lt;/span&gt; &lt;span style=&quot;color: #0000ff;&quot;&gt;new&lt;/span&gt; &lt;span style=&quot;color: #795e26;&quot;&gt;GraphQLList&lt;/span&gt;(&lt;span style=&quot;color: #0070c1;&quot;&gt;BookType&lt;/span&gt;),&lt;/div&gt;&lt;div&gt;      &lt;span style=&quot;color: #795e26;&quot;&gt;resolve&lt;/span&gt;&lt;span style=&quot;color: #001080;&quot;&gt;:&lt;/span&gt; (&lt;span style=&quot;color: #001080;&quot;&gt;author&lt;/span&gt;) &lt;span style=&quot;color: #0000ff;&quot;&gt;=&amp;gt;&lt;/span&gt; {&lt;/div&gt;&lt;div&gt;        &lt;span style=&quot;color: #af00db;&quot;&gt;return&lt;/span&gt; &lt;span style=&quot;color: #0070c1;&quot;&gt;books&lt;/span&gt;.&lt;span style=&quot;color: #795e26;&quot;&gt;filter&lt;/span&gt;(&lt;span style=&quot;color: #001080;&quot;&gt;book&lt;/span&gt; &lt;span style=&quot;color: #0000ff;&quot;&gt;=&amp;gt;&lt;/span&gt; &lt;span style=&quot;color: #001080;&quot;&gt;book&lt;/span&gt;.&lt;span style=&quot;color: #001080;&quot;&gt;authorId&lt;/span&gt; === &lt;span style=&quot;color: #001080;&quot;&gt;author&lt;/span&gt;.&lt;span style=&quot;color: #001080;&quot;&gt;id&lt;/span&gt;)&lt;/div&gt;&lt;div&gt;      }&lt;/div&gt;&lt;div&gt;    }&lt;/div&gt;&lt;div&gt;  })&lt;/div&gt;&lt;div&gt;})&lt;/div&gt;&lt;/div&gt;" style="text;html=1;strokeColor=none;fillColor=none;align=left;verticalAlign=middle;whiteSpace=wrap;rounded=0;" vertex="1" parent="1">
          <mxGeometry x="800" y="850" width="640" height="30" as="geometry" />
        </mxCell>
      </root>
    </mxGraphModel>
  </diagram>
</mxfile>
